<svg xmlns="http://www.w3.org/2000/svg" viewBox="0 0 360 360"><g fill="none" stroke="#e7eaf1" stroke-linecap="round" stroke-width="1" stroke-opacity="0.6"><path d="M2 2 Q198.0 10.0 378.0 18.0"/><path d="M2 2 Q10.0 198.0 18.0 378.0"/><line x1="0" y1="0" x2="423.3" y2="35.2"/><line x1="0" y1="0" x2="413.5" y2="97.3"/><line x1="0" y1="0" x2="390.2" y2="167.8"/><line x1="0" y1="0" x2="360.5" y2="224.8"/><line x1="0" y1="0" x2="318.6" y2="281.0"/><line x1="0" y1="0" x2="283.0" y2="316.8"/><line x1="0" y1="0" x2="212.4" y2="367.9"/><line x1="0" y1="0" x2="162.4" y2="392.5"/><line x1="0" y1="0" x2="102.5" y2="412.3"/><line x1="0" y1="0" x2="28.3" y2="423.9"/></g><g fill="none" stroke="#e7eaf1" stroke-linecap="round" stroke-width="0.8" stroke-opacity="0.5"><path d="M70.8 4.6 Q58.0 13.1 70.7 16.9"/><path d="M70.9 17.1 Q56.5 23.4 66.8 29.5"/><path d="M64.6 29.2 Q51.4 31.4 60.8 36.9"/><path d="M59.5 38.6 Q46.7 39.1 54.3 46.2"/><path d="M53.9 46.8 Q42.3 45.5 49.3 53.8"/><path d="M49.2 52.6 Q35.5 52.0 37.4 63.8"/><path d="M36.1 63.3 Q26.0 57.0 27.3 65.3"/><path d="M28.0 67.5 Q18.9 60.2 18.0 68.8"/><path d="M18.9 71.6 Q9.3 63.4 3.7 72.5"/><path d="M137.0 10.9 Q111.4 25.3 134.8 30.8"/><path d="M133.4 30.0 Q106.2 41.9 125.5 52.2"/><path d="M126.2 55.9 Q99.0 61.6 115.2 74.2"/><path d="M115.3 73.2 Q88.8 74.8 101.3 89.3"/><path d="M103.0 89.2 Q79.4 86.6 90.7 102.1"/><path d="M89.2 101.1 Q64.2 97.6 67.5 117.1"/><path d="M69.4 117.8 Q50.4 107.9 53.4 125.2"/><path d="M50.9 126.5 Q34.5 115.1 33.3 134.2"/><path d="M32.9 134.6 Q17.0 118.6 8.5 134.6"/><path d="M202.9 15.5 Q165.4 38.4 200.6 48.1"/><path d="M199.3 47.3 Q159.0 65.6 188.5 82.8"/><path d="M189.3 81.1 Q149.7 90.4 175.9 109.4"/><path d="M174.7 110.1 Q135.0 113.3 154.6 136.2"/><path d="M152.0 134.2 Q119.2 129.7 138.6 152.2"/><path d="M136.1 154.4 Q98.6 148.2 104.5 177.1"/><path d="M101.4 178.8 Q74.2 163.2 79.5 189.2"/><path d="M76.6 187.9 Q51.3 170.3 48.4 197.4"/><path d="M49.9 198.6 Q26.9 177.6 15.6 204.6"/><path d="M272.2 22.7 Q220.5 51.7 265.6 63.4"/><path d="M265.5 63.3 Q211.3 86.8 250.0 108.4"/><path d="M249.5 107.1 Q198.1 119.2 233.6 143.5"/><path d="M234.0 143.0 Q180.8 149.4 206.9 181.3"/><path d="M204.6 179.2 Q158.2 172.8 181.2 202.2"/><path d="M180.4 203.6 Q129.9 197.0 136.4 236.9"/><path d="M138.6 236.1 Q99.2 217.2 103.5 253.6"/><path d="M103.1 254.5 Q69.2 230.0 65.6 266.4"/><path d="M65.6 264.0 Q34.5 236.1 18.6 271.9"/><path d="M334.9 26.1 Q270.4 62.0 324.7 76.1"/><path d="M325.4 75.9 Q258.9 105.3 306.2 131.9"/><path d="M306.6 132.0 Q242.4 147.4 284.7 178.6"/><path d="M284.8 177.7 Q219.3 183.6 250.0 221.1"/><path d="M250.9 221.0 Q194.9 212.6 224.5 248.4"/><path d="M222.7 249.6 Q160.3 240.6 168.3 288.2"/><path d="M167.1 289.7 Q121.7 266.3 129.8 310.7"/><path d="M126.2 310.3 Q85.5 280.2 82.2 324.2"/><path d="M81.0 324.9 Q43.1 289.7 24.0 332.6"/></g><g fill="none" stroke="#e7eaf1" stroke-linecap="round" stroke-width="0.7" stroke-opacity="0.4"><path d="M284.1 177.1 C279.1 195.1 290.1 210.9 285.1 222.1"/><path d="M167.4 290.0 C162.4 317.4 173.4 341.5 168.4 358.7"/></g></svg>