<svg xmlns="http://www.w3.org/2000/svg" viewBox="0 0 190 360"><g fill="none" stroke="#e6e9f0" stroke-opacity="0.55" stroke-linecap="round"> stroke-width="1.1"><path d="M145.8 -8.8 Q69.9 -2.9 6.0 3.0"/><path d="M98.0 -8.1 Q147.0 -2.6 184.0 3.0"/><path d="M118.7 253.2 Q68.3 322.6 34.0 356.0"/><path d="M59.9 248.5 Q116.9 320.2 158.0 356.0"/><path d="M98.0 -8.1 Q121.9 -2.5 145.8 -8.8"/><path d="M145.8 -8.8 Q161.7 17.7 177.5 32.2"/><path d="M177.5 32.2 Q188.7 62.0 199.9 79.9"/><path d="M199.9 79.9 Q211.8 107.1 223.7 119.2"/><path d="M223.7 119.2 Q213.4 167.9 203.1 190.4"/><path d="M203.1 190.4 Q160.9 241.5 118.7 253.2"/><path d="M118.7 253.2 Q89.3 273.5 59.9 248.5"/><path d="M59.9 248.5 Q26.0 258.7 -7.9 226.3"/><path d="M-7.9 226.3 Q-17.6 187.0 -27.3 118.0"/><path d="M-27.3 118.0 Q-8.8 100.4 9.7 68.8"/><path d="M9.7 68.8 Q14.1 54.2 18.5 27.5"/><path d="M18.5 27.5 Q30.3 17.6 42.0 -4.3"/><path d="M42.0 -4.3 Q70.0 -0.2 98.0 -8.1"/></g><g fill="none" stroke="#e6e9f0" stroke-opacity="0.55" stroke-linecap="round"> stroke-width="0.8"><line x1="96" y1="84" x2="98.0" y2="-8.1"/><line x1="96" y1="84" x2="145.8" y2="-8.8"/><line x1="96" y1="84" x2="177.5" y2="32.2"/><line x1="96" y1="84" x2="199.9" y2="79.9"/><line x1="96" y1="84" x2="223.7" y2="119.2"/><line x1="96" y1="84" x2="203.1" y2="190.4"/><line x1="96" y1="84" x2="118.7" y2="253.2"/><line x1="96" y1="84" x2="59.9" y2="248.5"/><line x1="96" y1="84" x2="-7.9" y2="226.3"/><line x1="96" y1="84" x2="-27.3" y2="118.0"/><line x1="96" y1="84" x2="9.7" y2="68.8"/><line x1="96" y1="84" x2="18.5" y2="27.5"/><line x1="96" y1="84" x2="42.0" y2="-4.3"/></g><g fill="none" stroke="#e6e9f0" stroke-opacity="0.55" stroke-linecap="round"> stroke-width="0.7" stroke-opacity="0.5"><path d="M95.7 57.0 Q102.4 59.1 110.2 55.2"/><path d="M111.4 56.6 Q114.7 65.9 121.2 69.1"/><path d="M121.1 68.9 Q121.5 78.7 126.2 82.4"/><path d="M126.5 83.1 Q127.5 98.2 134.1 94.2"/><path d="M134.9 94.2 Q129.0 114.7 128.9 116.0"/><path d="M127.5 115.8 Q113.7 134.8 103.0 134.6"/><path d="M102.4 135.4 Q94.1 143.8 85.4 133.1"/><path d="M85.6 133.5 Q76.8 139.8 64.6 126.8"/><path d="M64.3 125.9 Q64.5 119.7 59.2 94.3"/><path d="M58.9 93.8 Q67.0 95.8 70.0 78.6"/><path d="M70.7 78.9 Q73.3 76.3 72.0 67.7"/><path d="M73.0 67.3 Q78.3 65.1 80.7 57.0"/><path d="M79.8 57.3 Q88.9 60.0 96.9 56.7"/><path d="M96.4 37.3 Q107.8 41.0 121.1 36.6"/><path d="M120.5 38.1 Q126.2 52.1 137.3 58.0"/><path d="M136.5 58.1 Q138.3 73.8 147.5 81.5"/><path d="M148.6 81.5 Q149.7 103.9 160.0 100.7"/><path d="M160.6 102.0 Q150.3 132.1 149.5 136.5"/><path d="M150.2 136.8 Q125.9 165.4 106.8 168.5"/><path d="M107.9 168.3 Q92.7 180.0 76.9 166.1"/><path d="M77.2 167.2 Q63.2 174.1 43.6 155.3"/><path d="M44.2 155.9 Q44.0 141.8 34.8 102.0"/><path d="M33.9 100.5 Q47.6 101.1 52.8 76.2"/><path d="M53.4 76.4 Q59.0 70.4 58.1 56.3"/><path d="M57.3 56.6 Q65.7 52.3 68.8 40.0"/><path d="M69.8 39.8 Q84.2 43.1 96.7 38.4"/><path d="M98.1 22.1 Q112.3 26.1 129.2 20.4"/><path d="M129.6 20.0 Q136.6 39.4 150.7 49.1"/><path d="M152.0 48.2 Q154.3 69.4 166.8 80.8"/><path d="M166.0 81.4 Q168.3 110.8 183.1 108.8"/><path d="M183.6 107.4 Q170.0 147.2 169.2 155.6"/><path d="M169.5 156.0 Q136.7 193.4 111.0 199.4"/><path d="M110.6 199.7 Q91.3 213.2 71.2 195.4"/><path d="M71.7 195.8 Q52.3 204.4 25.4 181.6"/><path d="M25.2 181.7 Q24.5 160.2 11.3 107.3"/><path d="M12.4 106.5 Q30.7 106.0 37.5 74.2"/><path d="M37.5 72.8 Q45.2 64.1 44.1 45.5"/><path d="M43.2 46.2 Q55.0 39.6 59.8 23.2"/><path d="M60.1 23.6 Q79.7 27.1 96.5 20.8"/><path d="M96.8 6.2 Q116.1 11.5 138.9 5.3"/><path d="M137.4 4.9 Q147.2 28.1 165.9 39.9"/><path d="M164.6 39.4 Q167.9 65.8 183.6 80.7"/><path d="M184.5 80.1 Q186.8 115.0 204.8 113.2"/><path d="M205.2 113.1 Q188.6 161.8 188.0 173.7"/><path d="M186.6 173.6 Q146.7 219.0 115.7 227.7"/><path d="M115.6 226.9 Q90.5 243.2 64.4 222.8"/><path d="M64.5 223.8 Q40.5 233.3 6.8 205.9"/><path d="M7.3 204.3 Q6.7 176.8 -9.4 112.6"/><path d="M-8.9 112.9 Q14.4 110.6 23.6 71.5"/><path d="M22.8 70.4 Q31.8 59.2 29.7 36.5"/><path d="M30.6 36.0 Q44.4 28.4 49.3 9.4"/><path d="M50.6 8.0 Q75.5 12.4 96.9 5.3"/></g><g fill="none" stroke="#e6e9f0" stroke-opacity="0.55" stroke-linecap="round"> stroke-width="0.6" stroke-opacity="0.4"><path d="M118.7 253.2 C112.8 270.3 121.8 285.3 116.8 296.0"/><path d="M59.9 248.5 C56.3 272.3 65.3 293.1 60.3 308.0"/></g></svg>