<svg xmlns="http://www.w3.org/2000/svg" viewBox="0 0 360 360"><g fill="none" stroke="#e7eaf1" stroke-linecap="round" stroke-width="0.9" stroke-opacity="0.6"><path d="M2 2 Q198.0 10.0 378.0 18.0"/><path d="M2 2 Q10.0 198.0 18.0 378.0"/><line x1="0" y1="0" x2="423.9" y2="27.3"/><line x1="0" y1="0" x2="419.4" y2="67.3"/><line x1="0" y1="0" x2="408.5" y2="116.7"/><line x1="0" y1="0" x2="395.1" y2="156.0"/><line x1="0" y1="0" x2="375.5" y2="198.6"/><line x1="0" y1="0" x2="361.0" y2="223.8"/><line x1="0" y1="0" x2="324.4" y2="274.2"/><line x1="0" y1="0" x2="301.6" y2="299.2"/><line x1="0" y1="0" x2="271.7" y2="326.5"/><line x1="0" y1="0" x2="230.4" y2="356.9"/><line x1="0" y1="0" x2="196.8" y2="376.5"/><line x1="0" y1="0" x2="158.3" y2="394.2"/><line x1="0" y1="0" x2="106.9" y2="411.1"/><line x1="0" y1="0" x2="64.5" y2="419.9"/><line x1="0" y1="0" x2="18.4" y2="424.4"/></g><g fill="none" stroke="#e7eaf1" stroke-linecap="round" stroke-width="0.7" stroke-opacity="0.52"><path d="M50.7 3.7 Q42.0 6.9 50.6 6.8"/><path d="M50.3 7.8 Q40.6 11.0 47.6 12.7"/><path d="M48.8 14.1 Q39.3 16.0 45.8 18.4"/><path d="M46.2 19.5 Q37.7 20.8 44.6 24.4"/><path d="M43.7 24.6 Q36.4 23.8 43.9 26.6"/><path d="M43.6 26.4 Q33.7 27.1 37.5 32.9"/><path d="M39.2 33.0 Q30.8 31.4 34.9 36.6"/><path d="M37.1 34.6 Q28.9 33.2 32.7 39.3"/><path d="M31.9 40.0 Q24.4 36.8 27.0 42.5"/><path d="M26.4 42.2 Q20.0 38.7 22.0 45.1"/><path d="M24.8 44.0 Q18.6 40.0 20.2 46.2"/><path d="M19.4 45.8 Q12.9 41.9 11.8 49.1"/><path d="M11.7 48.5 Q8.1 42.7 7.7 48.4"/><path d="M7.0 49.1 Q3.4 44.1 1.1 51.1"/><path d="M92.9 6.8 Q76.5 13.2 91.5 13.8"/><path d="M92.5 15.1 Q76.2 21.6 91.1 25.7"/><path d="M91.4 25.2 Q73.5 28.9 85.6 33.2"/><path d="M85.9 35.1 Q70.4 37.2 83.6 43.4"/><path d="M82.9 43.8 Q68.0 43.6 80.8 49.9"/><path d="M79.5 50.6 Q62.9 50.9 72.1 60.8"/><path d="M72.6 60.9 Q57.9 56.7 66.8 64.5"/><path d="M65.3 67.4 Q51.7 62.3 59.3 71.5"/><path d="M60.9 73.4 Q46.1 67.4 50.3 77.7"/><path d="M51.6 79.4 Q39.3 71.5 43.1 81.6"/><path d="M42.1 82.1 Q31.4 74.9 33.6 87.1"/><path d="M34.5 88.3 Q24.0 78.8 23.4 90.2"/><path d="M23.6 90.0 Q15.9 80.2 14.8 91.9"/><path d="M14.7 91.5 Q7.9 80.9 4.3 92.1"/><path d="M135.8 9.9 Q112.0 20.5 134.1 23.1"/><path d="M133.8 23.0 Q110.2 31.8 131.8 37.1"/><path d="M130.2 36.8 Q106.2 42.4 125.8 48.9"/><path d="M126.9 50.0 Q102.8 54.7 120.9 65.3"/><path d="M120.3 63.1 Q98.4 62.5 116.8 71.0"/><path d="M117.5 71.8 Q92.4 73.2 105.2 88.0"/><path d="M103.3 88.6 Q82.8 84.0 96.3 97.3"/><path d="M95.9 95.4 Q75.9 89.9 87.0 104.8"/><path d="M86.9 104.1 Q66.7 97.5 74.0 114.2"/><path d="M74.0 115.4 Q57.5 105.2 64.4 121.8"/><path d="M63.8 120.4 Q47.5 109.4 50.7 126.8"/><path d="M50.6 128.0 Q34.9 114.8 33.5 132.1"/><path d="M34.4 133.1 Q22.3 118.1 19.4 135.0"/><path d="M20.6 136.6 Q11.4 119.7 6.9 135.4"/><path d="M180.3 12.6 Q148.4 26.1 177.2 28.7"/><path d="M177.8 29.8 Q145.1 41.4 172.0 48.3"/><path d="M173.4 50.9 Q140.9 57.2 166.1 65.2"/><path d="M168.6 66.8 Q135.8 71.0 158.6 82.8"/><path d="M158.0 83.7 Q129.1 83.6 153.1 96.1"/><path d="M153.9 95.0 Q120.8 97.1 137.3 117.2"/><path d="M138.6 115.4 Q111.0 109.3 128.8 126.3"/><path d="M128.9 125.5 Q101.5 118.6 115.8 138.5"/><path d="M114.6 139.7 Q88.1 129.8 97.8 151.3"/><path d="M97.8 152.0 Q75.8 138.2 84.8 159.3"/><path d="M83.1 159.6 Q62.4 145.0 67.2 168.1"/><path d="M68.0 168.2 Q46.5 151.7 44.1 175.6"/><path d="M44.7 173.7 Q30.5 155.3 28.8 178.7"/><path d="M27.3 178.8 Q14.4 157.5 7.3 179.0"/><path d="M224.0 15.3 Q184.4 32.5 220.3 36.0"/><path d="M221.6 35.3 Q180.5 50.9 213.3 60.5"/><path d="M215.3 61.6 Q175.4 70.8 207.5 82.0"/><path d="M207.5 82.5 Q167.7 88.6 196.6 104.1"/><path d="M198.0 104.4 Q161.3 103.6 190.6 118.2"/><path d="M188.5 116.5 Q149.1 119.2 170.8 143.7"/><path d="M171.7 143.7 Q136.9 136.3 158.0 157.8"/><path d="M158.4 157.6 Q125.5 147.9 144.1 171.9"/><path d="M142.4 170.9 Q109.3 159.9 120.9 187.4"/><path d="M120.3 187.7 Q92.8 171.3 103.4 198.2"/><path d="M102.6 196.5 Q76.7 178.3 82.2 206.2"/><path d="M83.9 207.4 Q58.3 186.9 56.5 216.1"/><path d="M55.2 216.8 Q37.2 192.3 34.4 219.7"/><path d="M35.3 219.6 Q19.0 195.0 10.6 223.3"/><path d="M267.0 17.1 Q219.6 38.4 262.2 43.3"/><path d="M262.0 42.4 Q214.9 60.9 255.8 72.3"/><path d="M254.7 73.5 Q209.1 84.7 249.2 98.5"/><path d="M248.9 96.7 Q201.6 105.7 237.0 125.9"/><path d="M235.8 125.6 Q191.8 123.4 226.4 139.7"/><path d="M226.0 140.3 Q177.8 143.0 202.4 172.1"/><path d="M203.8 172.2 Q162.5 163.0 187.7 188.6"/><path d="M188.4 187.5 Q149.4 175.5 171.5 203.3"/><path d="M169.5 204.9 Q129.7 190.9 143.1 223.1"/><path d="M145.3 225.0 Q111.5 204.5 123.3 235.6"/><path d="M123.3 235.3 Q91.8 214.2 97.9 248.6"/><path d="M100.7 248.7 Q70.0 223.5 68.0 257.9"/><path d="M66.8 259.0 Q44.0 230.2 39.1 263.7"/><path d="M41.8 262.6 Q22.2 233.3 11.6 267.5"/><path d="M308.9 20.1 Q255.0 43.9 305.7 48.4"/><path d="M306.5 49.2 Q251.2 70.9 298.7 84.4"/><path d="M297.6 84.5 Q243.5 98.3 289.2 115.1"/><path d="M287.8 112.8 Q233.3 122.7 274.3 145.5"/><path d="M273.3 145.4 Q222.5 143.0 262.8 161.9"/><path d="M262.8 161.7 Q206.7 165.7 235.2 200.2"/><path d="M235.4 199.9 Q189.2 189.2 220.5 218.7"/><path d="M218.8 218.9 Q172.4 205.3 196.5 238.5"/><path d="M198.4 236.9 Q151.5 221.4 166.6 259.3"/><path d="M168.8 261.0 Q129.2 238.1 142.5 275.5"/><path d="M142.7 274.2 Q106.5 248.5 114.0 287.3"/><path d="M115.7 286.3 Q80.6 259.0 78.6 300.6"/><path d="M77.5 300.4 Q51.1 267.2 45.8 306.1"/><path d="M47.3 304.7 Q25.6 269.9 14.5 308.3"/><path d="M345.8 21.1 Q284.8 48.9 340.4 55.1"/><path d="M342.2 54.0 Q280.2 78.5 333.1 93.5"/><path d="M331.1 95.2 Q271.4 109.4 322.8 126.6"/><path d="M322.5 125.9 Q260.9 136.4 306.2 161.2"/><path d="M305.9 160.8 Q249.5 159.0 295.2 180.7"/><path d="M294.7 181.4 Q231.8 185.6 263.9 224.1"/><path d="M263.3 223.3 Q211.1 210.9 245.2 243.4"/><path d="M246.3 243.7 Q194.2 228.5 221.7 265.3"/><path d="M220.5 264.9 Q169.1 247.6 186.8 290.0"/><path d="M186.5 291.6 Q144.0 265.5 160.5 306.5"/><path d="M159.3 305.5 Q119.5 277.4 128.6 321.2"/><path d="M128.6 321.3 Q89.7 289.5 87.5 334.6"/><path d="M86.5 335.1 Q57.7 298.0 52.6 341.3"/><path d="M53.4 342.5 Q28.5 302.9 15.2 345.7"/></g><g fill="none" stroke="#e7eaf1" stroke-linecap="round" stroke-width="0.6" stroke-opacity="0.4"><path d="M305.5 161.6 C300.5 184.2 311.5 204.1 306.5 218.2"/><path d="M221.1 265.7 C216.1 286.9 227.1 305.5 222.1 318.7"/><path d="M128.8 320.7 C123.8 346.7 134.8 369.4 129.8 385.7"/></g></svg>