<svg xmlns="http://www.w3.org/2000/svg" viewBox="0 0 200 200"><g fill="none" stroke="#e6e9f0" stroke-width="1" stroke-opacity="0.6" stroke-linecap="round"><line x1="100" y1="100" x2="100.0" y2="4.0"/><line x1="100" y1="100" x2="148.0" y2="16.9"/><line x1="100" y1="100" x2="183.1" y2="52.0"/><line x1="100" y1="100" x2="196.0" y2="100.0"/><line x1="100" y1="100" x2="183.1" y2="148.0"/><line x1="100" y1="100" x2="148.0" y2="183.1"/><line x1="100" y1="100" x2="100.0" y2="196.0"/><line x1="100" y1="100" x2="52.0" y2="183.1"/><line x1="100" y1="100" x2="16.9" y2="148.0"/><line x1="100" y1="100" x2="4.0" y2="100.0"/><line x1="100" y1="100" x2="16.9" y2="52.0"/><line x1="100" y1="100" x2="52.0" y2="16.9"/><path d="M100.0 78.0 Q104.5 83.1 111.0 80.9"/><path d="M111.0 80.9 Q112.3 87.7 119.1 89.0"/><path d="M119.1 89.0 Q116.9 95.5 122.0 100.0"/><path d="M122.0 100.0 Q116.9 104.5 119.1 111.0"/><path d="M119.1 111.0 Q112.3 112.3 111.0 119.1"/><path d="M111.0 119.1 Q104.5 116.9 100.0 122.0"/><path d="M100.0 122.0 Q95.5 116.9 89.0 119.1"/><path d="M89.0 119.1 Q87.7 112.3 80.9 111.0"/><path d="M80.9 111.0 Q83.1 104.5 78.0 100.0"/><path d="M78.0 100.0 Q83.1 95.5 80.9 89.0"/><path d="M80.9 89.0 Q87.7 87.7 89.0 80.9"/><path d="M89.0 80.9 Q95.5 83.1 100.0 78.0"/><path d="M100.0 54.0 Q109.4 64.8 123.0 60.2"/><path d="M123.0 60.2 Q125.7 74.3 139.8 77.0"/><path d="M139.8 77.0 Q135.2 90.6 146.0 100.0"/><path d="M146.0 100.0 Q135.2 109.4 139.8 123.0"/><path d="M139.8 123.0 Q125.7 125.7 123.0 139.8"/><path d="M123.0 139.8 Q109.4 135.2 100.0 146.0"/><path d="M100.0 146.0 Q90.6 135.2 77.0 139.8"/><path d="M77.0 139.8 Q74.3 125.7 60.2 123.0"/><path d="M60.2 123.0 Q64.8 109.4 54.0 100.0"/><path d="M54.0 100.0 Q64.8 90.6 60.2 77.0"/><path d="M60.2 77.0 Q74.3 74.3 77.0 60.2"/><path d="M77.0 60.2 Q90.6 64.8 100.0 54.0"/><path d="M100.0 30.0 Q114.3 46.5 135.0 39.4"/><path d="M135.0 39.4 Q139.2 60.8 160.6 65.0"/><path d="M160.6 65.0 Q153.5 85.7 170.0 100.0"/><path d="M170.0 100.0 Q153.5 114.3 160.6 135.0"/><path d="M160.6 135.0 Q139.2 139.2 135.0 160.6"/><path d="M135.0 160.6 Q114.3 153.5 100.0 170.0"/><path d="M100.0 170.0 Q85.7 153.5 65.0 160.6"/><path d="M65.0 160.6 Q60.8 139.2 39.4 135.0"/><path d="M39.4 135.0 Q46.5 114.3 30.0 100.0"/><path d="M30.0 100.0 Q46.5 85.7 39.4 65.0"/><path d="M39.4 65.0 Q60.8 60.8 65.0 39.4"/><path d="M65.0 39.4 Q85.7 46.5 100.0 30.0"/><path d="M100.0 6.0 Q119.3 28.1 147.0 18.6"/><path d="M147.0 18.6 Q152.6 47.4 181.4 53.0"/><path d="M181.4 53.0 Q171.9 80.7 194.0 100.0"/><path d="M194.0 100.0 Q171.9 119.3 181.4 147.0"/><path d="M181.4 147.0 Q152.6 152.6 147.0 181.4"/><path d="M147.0 181.4 Q119.3 171.9 100.0 194.0"/><path d="M100.0 194.0 Q80.7 171.9 53.0 181.4"/><path d="M53.0 181.4 Q47.4 152.6 18.6 147.0"/><path d="M18.6 147.0 Q28.1 119.3 6.0 100.0"/><path d="M6.0 100.0 Q28.1 80.7 18.6 53.0"/><path d="M18.6 53.0 Q47.4 47.4 53.0 18.6"/><path d="M53.0 18.6 Q80.7 28.1 100.0 6.0"/></g><line x1="100" y1="100" x2="128" y2="70" stroke="#e6e9f0" stroke-width="0.6" stroke-opacity="0.5"/><g stroke="#0a0609" stroke-width="1.7" fill="none" stroke-linecap="round"><path d="M128 70 C122 65 119 61 114 61 M128 70 C122 69 118 72 113 72 M128 70 C123 73 120 77 116 80 M128 70 C125 64 124 59 122 55"/><path d="M128 70 C134 65 137 61 142 61 M128 70 C134 69 138 72 143 72 M128 70 C133 73 136 77 140 80 M128 70 C131 64 132 59 134 55"/></g><ellipse cx="128" cy="72" rx="4.6" ry="5.6" fill="#0a0609"/><circle cx="128" cy="65" r="3.2" fill="#0a0609"/><circle cx="126.6" cy="64.5" r="0.9" fill="#ff7518"/><circle cx="129.4" cy="64.5" r="0.9" fill="#ff7518"/></svg>