<svg xmlns="http://www.w3.org/2000/svg" viewBox="0 0 444 683" preserveAspectRatio="none" fill="none">
<defs>
<linearGradient id="g" x1="0" y1="0" x2="1" y2="1">
<stop offset="0" stop-color="#FFF3BE"/><stop offset="0.32" stop-color="#F1D070"/>
<stop offset="0.62" stop-color="#CB982F"/><stop offset="1" stop-color="#956A20"/>
</linearGradient>
<radialGradient id="b" cx="0.36" cy="0.32" r="0.75">
<stop offset="0" stop-color="#FFF7D8"/><stop offset="0.45" stop-color="#F0CB63"/><stop offset="1" stop-color="#9C7022"/>
</radialGradient>
</defs>
<path d="M42,11.09L47,10.86L52,10.97L57,11.4L62,12.08L67,12.93L72,13.85L77,14.74L82,15.54L87,16.17L92,16.6L97,16.82L102,16.85L107,16.74L112,16.55L117,16.36L122,16.21L127,16.19L132,16.31L137,16.61L142,17.06L147,17.65L152,18.3L157,18.97L162,19.57L167,20.05L172,20.34L177,20.4L182,20.22L187,19.8L192,19.16L197,18.34L202,17.38L207,16.33L212,15.25L217,14.18L222,13.15L227,12.19L232,11.32L237,10.55L242,9.88L247,9.34L252,8.93L257,8.67L262,8.59L267,8.72L272,9.09L277,9.71L282,10.6L287,11.77L292,13.17L297,14.77L302,16.5L307,18.27L312,20L317,21.57L322,22.9L327,23.9L332,24.53L337,24.75L342,24.58L347,24.04L352,23.2L357,22.16L362,21L367,19.83L372,18.74L377,17.79L382,17.03L387,16.48L392,16.13L397,15.93L402,15.82L407.02,16.24L411.89,17.57L416.49,19.74L420.71,22.67L424.47,26.32L427.64,30.64L430.09,35.58L431.63,41.04L431.79,42L432.61,47L433.36,52L433.94,57L434.32,62L434.45,67L434.3,72L433.89,77L433.23,82L432.37,87L431.36,92L430.25,97L429.11,102L427.99,107L426.91,112L425.92,117L425.03,122L424.26,127L423.6,132L423.07,137L422.67,142L422.41,147L422.31,152L422.4,157L422.68,162L423.18,167L423.91,172L424.86,177L426,182L427.29,187L428.67,192L430.07,197L431.4,202L432.56,207L433.47,212L434.06,217L434.3,222L434.15,227L433.63,232L432.79,237L431.71,242L430.46,247L429.15,252L427.89,257L426.76,262L425.84,267L425.17,272L424.77,277L424.62,282L424.68,287L424.89,292L425.17,297L425.46,302L425.69,307L425.8,312L425.77,317L425.6,322L425.32,327L424.97,332L424.61,337L424.31,342L424.14,347L424.15,352L424.38,357L424.85,362L425.56,367L426.47,372L427.54,377L428.72,382L429.93,387L431.13,392L432.24,397L433.23,402L434.07,407L434.72,412L435.2,417L435.49,422L435.6,427L435.53,432L435.3,437L434.89,442L434.3,447L433.53,452L432.57,457L431.42,462L430.09,467L428.61,472L427.03,477L425.4,482L423.79,487L422.3,492L420.99,497L419.97,502L419.29,507L418.99,512L419.1,517L419.61,522L420.46,527L421.59,532L422.92,537L424.33,542L425.72,547L426.99,552L428.08,557L428.92,562L429.5,567L429.82,572L429.93,577L429.88,582L429.75,587L429.6,592L429.52,597L429.54,602L429.71,607L430.03,612L430.47,617L431,622L431.55,627L432.05,632L432.43,637L432.61,641L432.08,646.86L430.21,652.42L427.12,657.35L423.04,661.37L418.26,664.3L413.1,666.06L407.86,666.66L402.82,666.23L402,666.07L397,665.06L392,664.17L387,663.44L382,662.88L377,662.5L372,662.29L367,662.26L362,662.37L357,662.63L352,663.02L347,663.54L342,664.18L337,664.96L332,665.85L327,666.86L322,667.96L317,669.13L312,670.3L307,671.43L302,672.43L297,673.24L292,673.79L287,674.02L282,673.89L277,673.38L272,672.52L267,671.35L262,669.94L257,668.38L252,666.78L247,665.24L242,663.87L237,662.74L232,661.91L227,661.41L222,661.23L217,661.34L212,661.67L207,662.14L202,662.68L197,663.21L192,663.66L187,663.99L182,664.18L177,664.24L172,664.21L167,664.13L162,664.07L157,664.1L152,664.28L147,664.64L142,665.21L137,666L132,666.98L127,668.1L122,669.3L117,670.52L112,671.68L107,672.72L102,673.58L97,674.23L92,674.64L87,674.81L82,674.74L77,674.46L72,673.99L67,673.36L62,672.58L57,671.67L52,670.65L47,669.53L42,668.31L37.03,666.54L32.74,663.87L29.29,660.52L26.74,656.76L25.06,652.82L24.15,648.91L23.88,645.14L24.08,641.58L24.15,641L24.43,636L24.35,631L23.89,626L23.08,621L21.96,616L20.6,611L19.1,606L17.56,601L16.09,596L14.78,591L13.72,586L12.95,581L12.5,576L12.36,571L12.48,566L12.82,561L13.29,556L13.8,551L14.27,546L14.64,541L14.86,536L14.91,531L14.81,526L14.59,521L14.29,516L14,511L13.77,506L13.66,501L13.74,496L14.02,491L14.51,486L15.18,481L16,476L16.91,471L17.83,466L18.7,461L19.46,456L20.04,451L20.42,446L20.58,441L20.51,436L20.23,431L19.77,426L19.17,421L18.44,416L17.63,411L16.76,406L15.85,401L14.91,396L13.95,391L13,386L12.06,381L11.16,376L10.33,371L9.62,366L9.07,361L8.74,356L8.68,351L8.92,346L9.5,341L10.41,336L11.62,331L13.1,326L14.76,321L16.52,316L18.27,311L19.9,306L21.31,301L22.43,296L23.19,291L23.58,286L23.6,281L23.29,276L22.71,271L21.95,266L21.09,261L20.24,256L19.45,251L18.8,246L18.3,241L17.96,236L17.75,231L17.63,226L17.54,221L17.41,216L17.18,211L16.8,206L16.24,201L15.5,196L14.6,191L13.58,186L12.49,181L11.42,176L10.43,171L9.6,166L8.98,161L8.6,156L8.5,151L8.66,146L9.08,141L9.71,136L10.53,131L11.48,126L12.52,121L13.63,116L14.76,111L15.91,106L17.04,101L18.15,96L19.22,91L20.23,86L21.16,81L21.96,76L22.59,71L23.02,66L23.2,61L23.09,56L22.68,51L21.95,46L21.16,42L20.35,37.79L20.26,33.2L21.07,28.38L22.96,23.57L26.01,19.09L30.18,15.31L35.28,12.59L41,11.19Z" stroke="#5E430F" stroke-opacity="0.55" stroke-width="9.5" stroke-linejoin="round" stroke-linecap="round"/>
<path d="M42,11.09L47,10.86L52,10.97L57,11.4L62,12.08L67,12.93L72,13.85L77,14.74L82,15.54L87,16.17L92,16.6L97,16.82L102,16.85L107,16.74L112,16.55L117,16.36L122,16.21L127,16.19L132,16.31L137,16.61L142,17.06L147,17.65L152,18.3L157,18.97L162,19.57L167,20.05L172,20.34L177,20.4L182,20.22L187,19.8L192,19.16L197,18.34L202,17.38L207,16.33L212,15.25L217,14.18L222,13.15L227,12.19L232,11.32L237,10.55L242,9.88L247,9.34L252,8.93L257,8.67L262,8.59L267,8.72L272,9.09L277,9.71L282,10.6L287,11.77L292,13.17L297,14.77L302,16.5L307,18.27L312,20L317,21.57L322,22.9L327,23.9L332,24.53L337,24.75L342,24.58L347,24.04L352,23.2L357,22.16L362,21L367,19.83L372,18.74L377,17.79L382,17.03L387,16.48L392,16.13L397,15.93L402,15.82L407.02,16.24L411.89,17.57L416.49,19.74L420.71,22.67L424.47,26.32L427.64,30.64L430.09,35.58L431.63,41.04L431.79,42L432.61,47L433.36,52L433.94,57L434.32,62L434.45,67L434.3,72L433.89,77L433.23,82L432.37,87L431.36,92L430.25,97L429.11,102L427.99,107L426.91,112L425.92,117L425.03,122L424.26,127L423.6,132L423.07,137L422.67,142L422.41,147L422.31,152L422.4,157L422.68,162L423.18,167L423.91,172L424.86,177L426,182L427.29,187L428.67,192L430.07,197L431.4,202L432.56,207L433.47,212L434.06,217L434.3,222L434.15,227L433.63,232L432.79,237L431.71,242L430.46,247L429.15,252L427.89,257L426.76,262L425.84,267L425.17,272L424.77,277L424.62,282L424.68,287L424.89,292L425.17,297L425.46,302L425.69,307L425.8,312L425.77,317L425.6,322L425.32,327L424.97,332L424.61,337L424.31,342L424.14,347L424.15,352L424.38,357L424.85,362L425.56,367L426.47,372L427.54,377L428.72,382L429.93,387L431.13,392L432.24,397L433.23,402L434.07,407L434.72,412L435.2,417L435.49,422L435.6,427L435.53,432L435.3,437L434.89,442L434.3,447L433.53,452L432.57,457L431.42,462L430.09,467L428.61,472L427.03,477L425.4,482L423.79,487L422.3,492L420.99,497L419.97,502L419.29,507L418.99,512L419.1,517L419.61,522L420.46,527L421.59,532L422.92,537L424.33,542L425.72,547L426.99,552L428.08,557L428.92,562L429.5,567L429.82,572L429.93,577L429.88,582L429.75,587L429.6,592L429.52,597L429.54,602L429.71,607L430.03,612L430.47,617L431,622L431.55,627L432.05,632L432.43,637L432.61,641L432.08,646.86L430.21,652.42L427.12,657.35L423.04,661.37L418.26,664.3L413.1,666.06L407.86,666.66L402.82,666.23L402,666.07L397,665.06L392,664.17L387,663.44L382,662.88L377,662.5L372,662.29L367,662.26L362,662.37L357,662.63L352,663.02L347,663.54L342,664.18L337,664.96L332,665.85L327,666.86L322,667.96L317,669.13L312,670.3L307,671.43L302,672.43L297,673.24L292,673.79L287,674.02L282,673.89L277,673.38L272,672.52L267,671.35L262,669.94L257,668.38L252,666.78L247,665.24L242,663.87L237,662.74L232,661.91L227,661.41L222,661.23L217,661.34L212,661.67L207,662.14L202,662.68L197,663.21L192,663.66L187,663.99L182,664.18L177,664.24L172,664.21L167,664.13L162,664.07L157,664.1L152,664.28L147,664.64L142,665.21L137,666L132,666.98L127,668.1L122,669.3L117,670.52L112,671.68L107,672.72L102,673.58L97,674.23L92,674.64L87,674.81L82,674.74L77,674.46L72,673.99L67,673.36L62,672.58L57,671.67L52,670.65L47,669.53L42,668.31L37.03,666.54L32.74,663.87L29.29,660.52L26.74,656.76L25.06,652.82L24.15,648.91L23.88,645.14L24.08,641.58L24.15,641L24.43,636L24.35,631L23.89,626L23.08,621L21.96,616L20.6,611L19.1,606L17.56,601L16.09,596L14.78,591L13.72,586L12.95,581L12.5,576L12.36,571L12.48,566L12.82,561L13.29,556L13.8,551L14.27,546L14.64,541L14.86,536L14.91,531L14.81,526L14.59,521L14.29,516L14,511L13.77,506L13.66,501L13.74,496L14.02,491L14.51,486L15.18,481L16,476L16.91,471L17.83,466L18.7,461L19.46,456L20.04,451L20.42,446L20.58,441L20.51,436L20.23,431L19.77,426L19.17,421L18.44,416L17.63,411L16.76,406L15.85,401L14.91,396L13.95,391L13,386L12.06,381L11.16,376L10.33,371L9.62,366L9.07,361L8.74,356L8.68,351L8.92,346L9.5,341L10.41,336L11.62,331L13.1,326L14.76,321L16.52,316L18.27,311L19.9,306L21.31,301L22.43,296L23.19,291L23.58,286L23.6,281L23.29,276L22.71,271L21.95,266L21.09,261L20.24,256L19.45,251L18.8,246L18.3,241L17.96,236L17.75,231L17.63,226L17.54,221L17.41,216L17.18,211L16.8,206L16.24,201L15.5,196L14.6,191L13.58,186L12.49,181L11.42,176L10.43,171L9.6,166L8.98,161L8.6,156L8.5,151L8.66,146L9.08,141L9.71,136L10.53,131L11.48,126L12.52,121L13.63,116L14.76,111L15.91,106L17.04,101L18.15,96L19.22,91L20.23,86L21.16,81L21.96,76L22.59,71L23.02,66L23.2,61L23.09,56L22.68,51L21.95,46L21.16,42L20.35,37.79L20.26,33.2L21.07,28.38L22.96,23.57L26.01,19.09L30.18,15.31L35.28,12.59L41,11.19Z" stroke="url(#g)" stroke-width="6.6" stroke-linejoin="round" stroke-linecap="round"/>
<path d="M42,11.09L47,10.86L52,10.97L57,11.4L62,12.08L67,12.93L72,13.85L77,14.74L82,15.54L87,16.17L92,16.6L97,16.82L102,16.85L107,16.74L112,16.55L117,16.36L122,16.21L127,16.19L132,16.31L137,16.61L142,17.06L147,17.65L152,18.3L157,18.97L162,19.57L167,20.05L172,20.34L177,20.4L182,20.22L187,19.8L192,19.16L197,18.34L202,17.38L207,16.33L212,15.25L217,14.18L222,13.15L227,12.19L232,11.32L237,10.55L242,9.88L247,9.34L252,8.93L257,8.67L262,8.59L267,8.72L272,9.09L277,9.71L282,10.6L287,11.77L292,13.17L297,14.77L302,16.5L307,18.27L312,20L317,21.57L322,22.9L327,23.9L332,24.53L337,24.75L342,24.58L347,24.04L352,23.2L357,22.16L362,21L367,19.83L372,18.74L377,17.79L382,17.03L387,16.48L392,16.13L397,15.93L402,15.82L407.02,16.24L411.89,17.57L416.49,19.74L420.71,22.67L424.47,26.32L427.64,30.64L430.09,35.58L431.63,41.04L431.79,42L432.61,47L433.36,52L433.94,57L434.32,62L434.45,67L434.3,72L433.89,77L433.23,82L432.37,87L431.36,92L430.25,97L429.11,102L427.99,107L426.91,112L425.92,117L425.03,122L424.26,127L423.6,132L423.07,137L422.67,142L422.41,147L422.31,152L422.4,157L422.68,162L423.18,167L423.91,172L424.86,177L426,182L427.29,187L428.67,192L430.07,197L431.4,202L432.56,207L433.47,212L434.06,217L434.3,222L434.15,227L433.63,232L432.79,237L431.71,242L430.46,247L429.15,252L427.89,257L426.76,262L425.84,267L425.17,272L424.77,277L424.62,282L424.68,287L424.89,292L425.17,297L425.46,302L425.69,307L425.8,312L425.77,317L425.6,322L425.32,327L424.97,332L424.61,337L424.31,342L424.14,347L424.15,352L424.38,357L424.85,362L425.56,367L426.47,372L427.54,377L428.72,382L429.93,387L431.13,392L432.24,397L433.23,402L434.07,407L434.72,412L435.2,417L435.49,422L435.6,427L435.53,432L435.3,437L434.89,442L434.3,447L433.53,452L432.57,457L431.42,462L430.09,467L428.61,472L427.03,477L425.4,482L423.79,487L422.3,492L420.99,497L419.97,502L419.29,507L418.99,512L419.1,517L419.61,522L420.46,527L421.59,532L422.92,537L424.33,542L425.72,547L426.99,552L428.08,557L428.92,562L429.5,567L429.82,572L429.93,577L429.88,582L429.75,587L429.6,592L429.52,597L429.54,602L429.71,607L430.03,612L430.47,617L431,622L431.55,627L432.05,632L432.43,637L432.61,641L432.08,646.86L430.21,652.42L427.12,657.35L423.04,661.37L418.26,664.3L413.1,666.06L407.86,666.66L402.82,666.23L402,666.07L397,665.06L392,664.17L387,663.44L382,662.88L377,662.5L372,662.29L367,662.26L362,662.37L357,662.63L352,663.02L347,663.54L342,664.18L337,664.96L332,665.85L327,666.86L322,667.96L317,669.13L312,670.3L307,671.43L302,672.43L297,673.24L292,673.79L287,674.02L282,673.89L277,673.38L272,672.52L267,671.35L262,669.94L257,668.38L252,666.78L247,665.24L242,663.87L237,662.74L232,661.91L227,661.41L222,661.23L217,661.34L212,661.67L207,662.14L202,662.68L197,663.21L192,663.66L187,663.99L182,664.18L177,664.24L172,664.21L167,664.13L162,664.07L157,664.1L152,664.28L147,664.64L142,665.21L137,666L132,666.98L127,668.1L122,669.3L117,670.52L112,671.68L107,672.72L102,673.58L97,674.23L92,674.64L87,674.81L82,674.74L77,674.46L72,673.99L67,673.36L62,672.58L57,671.67L52,670.65L47,669.53L42,668.31L37.03,666.54L32.74,663.87L29.29,660.52L26.74,656.76L25.06,652.82L24.15,648.91L23.88,645.14L24.08,641.58L24.15,641L24.43,636L24.35,631L23.89,626L23.08,621L21.96,616L20.6,611L19.1,606L17.56,601L16.09,596L14.78,591L13.72,586L12.95,581L12.5,576L12.36,571L12.48,566L12.82,561L13.29,556L13.8,551L14.27,546L14.64,541L14.86,536L14.91,531L14.81,526L14.59,521L14.29,516L14,511L13.77,506L13.66,501L13.74,496L14.02,491L14.51,486L15.18,481L16,476L16.91,471L17.83,466L18.7,461L19.46,456L20.04,451L20.42,446L20.58,441L20.51,436L20.23,431L19.77,426L19.17,421L18.44,416L17.63,411L16.76,406L15.85,401L14.91,396L13.95,391L13,386L12.06,381L11.16,376L10.33,371L9.62,366L9.07,361L8.74,356L8.68,351L8.92,346L9.5,341L10.41,336L11.62,331L13.1,326L14.76,321L16.52,316L18.27,311L19.9,306L21.31,301L22.43,296L23.19,291L23.58,286L23.6,281L23.29,276L22.71,271L21.95,266L21.09,261L20.24,256L19.45,251L18.8,246L18.3,241L17.96,236L17.75,231L17.63,226L17.54,221L17.41,216L17.18,211L16.8,206L16.24,201L15.5,196L14.6,191L13.58,186L12.49,181L11.42,176L10.43,171L9.6,166L8.98,161L8.6,156L8.5,151L8.66,146L9.08,141L9.71,136L10.53,131L11.48,126L12.52,121L13.63,116L14.76,111L15.91,106L17.04,101L18.15,96L19.22,91L20.23,86L21.16,81L21.96,76L22.59,71L23.02,66L23.2,61L23.09,56L22.68,51L21.95,46L21.16,42L20.35,37.79L20.26,33.2L21.07,28.38L22.96,23.57L26.01,19.09L30.18,15.31L35.28,12.59L41,11.19Z" stroke="#FFF6DA" stroke-opacity="0.65" stroke-width="1.7" stroke-linejoin="round" stroke-linecap="round"/>
<circle cx="92" cy="13.6" r="5.77" fill="url(#b)" stroke="#7A581A" stroke-width="0.6"/><circle cx="90.15" cy="11.64" r="1.62" fill="#FFFBEC" fill-opacity="0.85"/>
<circle cx="217" cy="11.18" r="4.56" fill="url(#b)" stroke="#7A581A" stroke-width="0.6"/><circle cx="215.54" cy="9.63" r="1.28" fill="#FFFBEC" fill-opacity="0.85"/>
<circle cx="342" cy="21.58" r="4.37" fill="url(#b)" stroke="#7A581A" stroke-width="0.6"/><circle cx="340.60" cy="20.09" r="1.22" fill="#FFFBEC" fill-opacity="0.85"/>
<circle cx="437.45" cy="67" r="5.74" fill="url(#b)" stroke="#7A581A" stroke-width="0.6"/><circle cx="435.61" cy="65.05" r="1.61" fill="#FFFBEC" fill-opacity="0.85"/>
<circle cx="436.47" cy="212" r="5.68" fill="url(#b)" stroke="#7A581A" stroke-width="0.6"/><circle cx="434.65" cy="210.07" r="1.59" fill="#FFFBEC" fill-opacity="0.85"/>
<circle cx="427.61" cy="337" r="4.17" fill="url(#b)" stroke="#7A581A" stroke-width="0.6"/><circle cx="426.28" cy="335.58" r="1.17" fill="#FFFBEC" fill-opacity="0.85"/>
<circle cx="431.61" cy="472" r="4.35" fill="url(#b)" stroke="#7A581A" stroke-width="0.6"/><circle cx="430.22" cy="470.52" r="1.22" fill="#FFFBEC" fill-opacity="0.85"/>
<circle cx="432.71" cy="607" r="5.59" fill="url(#b)" stroke="#7A581A" stroke-width="0.6"/><circle cx="430.92" cy="605.10" r="1.57" fill="#FFFBEC" fill-opacity="0.85"/>
<circle cx="352" cy="666.02" r="5.51" fill="url(#b)" stroke="#7A581A" stroke-width="0.6"/><circle cx="350.24" cy="664.15" r="1.54" fill="#FFFBEC" fill-opacity="0.85"/>
<circle cx="227" cy="664.41" r="3.77" fill="url(#b)" stroke="#7A581A" stroke-width="0.6"/><circle cx="225.79" cy="663.13" r="1.06" fill="#FFFBEC" fill-opacity="0.85"/>
<circle cx="102" cy="676.58" r="5.07" fill="url(#b)" stroke="#7A581A" stroke-width="0.6"/><circle cx="100.38" cy="674.86" r="1.42" fill="#FFFBEC" fill-opacity="0.85"/>
<circle cx="16.1" cy="606" r="5.79" fill="url(#b)" stroke="#7A581A" stroke-width="0.6"/><circle cx="14.25" cy="604.03" r="1.62" fill="#FFFBEC" fill-opacity="0.85"/>
<circle cx="13.91" cy="471" r="5.28" fill="url(#b)" stroke="#7A581A" stroke-width="0.6"/><circle cx="12.22" cy="469.20" r="1.48" fill="#FFFBEC" fill-opacity="0.85"/>
<circle cx="7.41" cy="336" r="3.79" fill="url(#b)" stroke="#7A581A" stroke-width="0.6"/><circle cx="6.20" cy="334.71" r="1.06" fill="#FFFBEC" fill-opacity="0.85"/>
<circle cx="13.24" cy="201" r="4.7" fill="url(#b)" stroke="#7A581A" stroke-width="0.6"/><circle cx="11.74" cy="199.40" r="1.32" fill="#FFFBEC" fill-opacity="0.85"/>
<circle cx="18.96" cy="76" r="5.79" fill="url(#b)" stroke="#7A581A" stroke-width="0.6"/><circle cx="17.11" cy="74.03" r="1.62" fill="#FFFBEC" fill-opacity="0.85"/>
</svg>